<svg id="_x31__x2C_5" enable-background="new 0 0 24 24" height="512" viewBox="0 0 24 24" width="512" xmlns="http://www.w3.org/2000/svg">
<style>
path{
	fill:  #A400D0;
	stroke-width: 3;
}
</style><path d="m13.5 20.89c-.414 0-.75-.336-.75-.75v-3.89c0-.414.336-.75.75-.75s.75.336.75.75v3.89c0 .414-.336.75-.75.75z"/><path d="m10.5 14.5c-.414 0-.75-.336-.75-.75v-2c0-1.24 1.009-2.25 2.25-2.25s2.25 1.01 2.25 2.25v1.986c0 .414-.336.75-.75.75s-.75-.336-.75-.75v-1.986c0-.413-.336-.75-.75-.75s-.75.337-.75.75v2c0 .414-.336.75-.75.75z"/><path d="m10.5 20.89c-.414 0-.75-.336-.75-.75v-3.89c0-.414.336-.75.75-.75s.75.336.75.75v3.89c0 .414-.336.75-.75.75z"/><path d="m16.5 19.98c-.414 0-.75-.336-.75-.75v-7.48c0-.432-.072-.854-.215-1.258-.138-.391.066-.818.457-.957.393-.137.82.066.958.457.2.563.301 1.155.301 1.758v7.48c-.001.415-.337.75-.751.75z"/><path d="m15.18 9.32c-.194 0-.387-.074-.534-.224-.284-.287-.613-.525-.98-.708-1.237-.615-2.788-.48-3.906.351-.333.249-.803.179-1.05-.154-.248-.332-.178-.802.154-1.049 1.558-1.158 3.743-1.35 5.47-.491.516.257.98.593 1.381.999.291.295.287.77-.008 1.061-.146.143-.337.215-.527.215z"/><path d="m7.5 19.98c-.414 0-.75-.336-.75-.75v-7.48c0-.818.182-1.602.542-2.328.184-.372.632-.527 1.005-.34.371.183.523.633.34 1.004-.257.518-.387 1.078-.387 1.664v7.48c0 .415-.336.75-.75.75z"/><path d="m19.5 17.84c-.414 0-.75-.336-.75-.75v-5.34c0-1.8-.703-3.493-1.98-4.77-.293-.293-.293-.768 0-1.061s.768-.293 1.061 0c1.561 1.56 2.42 3.63 2.42 5.83v5.34c-.001.415-.337.751-.751.751z"/><path d="m15.491 5.863c-.119 0-.238-.028-.351-.087-1.796-.952-3.981-1.027-5.84-.214-.38.163-.822-.008-.988-.387-.166-.38.007-.821.386-.988 2.258-.986 4.961-.891 7.144.263.366.194.505.647.312 1.014-.134.255-.395.399-.663.399z"/><path d="m4.5 17.84c-.414 0-.75-.336-.75-.75v-5.34c0-2.252.891-4.355 2.509-5.924.297-.288.773-.281 1.061.018.288.297.281.771-.017 1.061-1.324 1.282-2.053 3.003-2.053 4.845v5.34c0 .414-.336.75-.75.75z"/><path d="m21.25 24h-18.5c-1.517 0-2.75-1.233-2.75-2.75v-18.5c0-1.517 1.233-2.75 2.75-2.75h18.5c1.517 0 2.75 1.233 2.75 2.75v18.5c0 1.517-1.233 2.75-2.75 2.75zm-18.5-22.5c-.689 0-1.25.561-1.25 1.25v18.5c0 .689.561 1.25 1.25 1.25h18.5c.689 0 1.25-.561 1.25-1.25v-18.5c0-.689-.561-1.25-1.25-1.25z"/></svg>