<?xml version="1.0" encoding="utf-8"?>
<!-- Generator: Adobe Illustrator 24.1.2, SVG Export Plug-In . SVG Version: 6.00 Build 0)  -->
<svg version="1.1" id="Слой_1" xmlns="http://www.w3.org/2000/svg" xmlns:xlink="http://www.w3.org/1999/xlink" x="0px" y="0px"
	 viewBox="0 0 500 239" style="enable-background:new 0 0 500 239;" xml:space="preserve">
<style type="text/css">
	.st0{fill:#FFFFFF;stroke:#A400D0;stroke-width:3;stroke-miterlimit:10;}
</style>
<path class="st0" d="M18,17.95l102.05,202.93l11.89-21.79c5.79-10.61,6.05-23.37,0.71-34.2L69.91,37.58
	c-5.92-12.02-18.16-19.63-31.57-19.63H18z"/>
<path class="st0" d="M260.09,17.95c-13.23,0-25.34,7.42-31.35,19.21l-41.49,81.39c-4.02,7.89-15.32,7.85-19.28-0.08L127.43,37.4
	c-5.96-11.92-18.15-19.45-31.48-19.45H77.82l88.23,175.44l13.83,27.49L280.76,17.95H260.09z"/>
<path class="st0" d="M267,184.27c4.33-7.4,11.22-12.97,19.36-15.65l83.55-27.51l-18.9,37.8c-9.64,19.28,4.38,41.97,25.94,41.97h0
	L479,17.95h-24.47c-13.08,0-25.09,7.26-31.16,18.84l-20.96,39.96c-4.29,8.18-11.62,14.34-20.41,17.16L300.7,120l30.17-61.04
	c9.34-18.89-4.41-41.01-25.48-41.01h0L202.17,220.88h23.22c12.93,1.15,25.02-3.35,29.4-14.37c0.17-0.43,0.36-0.86,0.59-1.26
	L267,184.27z"/>
</svg>
