<?xml version="1.0" encoding="utf-8"?>
<!-- Generator: Adobe Illustrator 24.1.2, SVG Export Plug-In . SVG Version: 6.00 Build 0)  -->
<svg version="1.1" id="Слой_1" xmlns="http://www.w3.org/2000/svg" xmlns:xlink="http://www.w3.org/1999/xlink" x="0px" y="0px"
	 viewBox="0 0 500 239" style="enable-background:new 0 0 500 239;" xml:space="preserve">
<style type="text/css">
	.st0{fill:#A400D0;}
	.st1{fill:#FFFFFF;}
</style>
<g>
	<path class="st0" d="M18,17.95l102.05,202.93l11.89-21.79c5.79-10.61,6.05-23.37,0.71-34.2L69.91,37.58
		c-5.92-12.02-18.16-19.63-31.57-19.63H18z"/>
	<path class="st1" d="M18.09,18l102.65,202.54l-1.34-0.02l7.8-14.38l3.9-7.19c1.27-2.36,2.31-4.82,3.05-7.38
		c1.49-5.11,1.85-10.56,1.01-15.81c-0.42-2.63-1.13-5.21-2.12-7.68c-0.98-2.44-2.28-4.87-3.48-7.32l-28.98-58.68L71.88,43.24
		c-1.2-2.43-2.33-4.97-3.61-7.29c-1.33-2.32-2.91-4.5-4.72-6.47c-3.62-3.96-8.22-6.99-13.24-8.92c-2.52-0.93-5.15-1.6-7.82-1.95
		c-2.68-0.39-5.39-0.31-8.07-0.37L18.09,18z M17.91,17.9l16.39-0.23c2.76-0.02,5.53-0.17,8.27,0.17c2.74,0.31,5.45,0.91,8.06,1.83
		c5.19,1.9,9.98,4.95,13.79,8.99c1.91,2.01,3.58,4.24,5,6.64c1.39,2.44,2.51,4.87,3.76,7.31l29.17,58.59l28.89,58.73
		c1.18,2.46,2.46,4.85,3.49,7.48c1.02,2.6,1.75,5.32,2.17,8.08c0.84,5.52,0.43,11.23-1.16,16.57c-0.79,2.67-1.9,5.26-3.23,7.69
		l-3.94,7.17l-7.87,14.34c-0.2,0.37-0.66,0.5-1.03,0.31c-0.14-0.08-0.25-0.19-0.32-0.33L17.91,17.9z"/>
</g>
<g>
	<path class="st0" d="M260.09,17.95c-13.23,0-25.34,7.42-31.35,19.21l-41.49,81.39c-4.02,7.89-15.32,7.85-19.28-0.08L127.43,37.4
		c-5.96-11.92-18.15-19.45-31.48-19.45H77.82l88.23,175.44l13.83,27.49L280.76,17.95H260.09z"/>
	<path class="st1" d="M260.09,18.05c-6.27,0.01-12.52,1.73-17.9,4.95c-5.38,3.2-9.88,7.87-12.86,13.37l-17.11,33.59l-17.06,33.62
		l-4.26,8.41l-2.13,4.2c-0.72,1.39-1.36,2.83-2.31,4.16c-1.92,2.59-5.05,4.29-8.3,4.4c-1.61,0.07-3.25-0.15-4.76-0.77
		c-1.5-0.62-2.86-1.56-3.99-2.73c-1.11-1.2-1.86-2.69-2.54-4.07l-2.12-4.21l-4.24-8.42l-8.48-16.83l-16.92-33.69l-8.47-16.83
		c-2.84-5.49-7.19-10.19-12.45-13.42c-5.25-3.26-11.38-5.06-17.55-5.16c-6.26-0.04-12.56,0.01-18.84,0l0.6-0.97l102.35,202.79
		l-1.78,0l25.23-50.73l25.42-50.63l25.53-50.58l25.44-50.62l0.15,0.24L260.09,18.05z M260.09,17.85l20.67-0.06
		c0.09,0,0.16,0.07,0.16,0.16c0,0.03-0.01,0.05-0.02,0.07l-25,50.85L231,119.76l-25.02,50.83l-25.21,50.74
		c-0.24,0.49-0.84,0.69-1.33,0.45c-0.2-0.1-0.35-0.26-0.45-0.45L77.23,18.25c-0.17-0.33-0.04-0.73,0.29-0.89
		c0.1-0.05,0.2-0.07,0.3-0.07c6.29,0.02,12.55-0.01,18.86,0.05c6.4,0.12,12.74,2.01,18.17,5.4c5.44,3.37,9.92,8.24,12.84,13.92
		l8.42,16.87l16.8,33.75l8.38,16.88l4.19,8.44l2.09,4.22c0.7,1.43,1.38,2.78,2.4,3.91c1.04,1.1,2.3,1.99,3.71,2.57
		c1.4,0.59,2.95,0.8,4.46,0.75c3.06-0.08,6-1.66,7.83-4.09c0.89-1.22,1.55-2.66,2.28-4.06l2.15-4.19l4.31-8.38l17.19-33.55
		l17.19-33.55c3.01-5.54,7.55-10.24,12.98-13.44C247.49,19.56,253.78,17.84,260.09,17.85z"/>
</g>
<g>
	<path class="st0" d="M267,184.27c4.33-7.4,11.22-12.97,19.36-15.65l83.55-27.51l-18.9,37.8c-9.64,19.28,4.38,41.97,25.94,41.97h0
		L479,17.95h-24.47c-13.08,0-25.09,7.26-31.16,18.84l-20.96,39.96c-4.29,8.18-11.62,14.34-20.41,17.16L300.7,120l30.17-61.04
		c9.34-18.89-4.41-41.01-25.48-41.01h0L202.17,220.88h23.22c12.93,1.15,25.02-3.35,29.4-14.37c0.17-0.43,0.36-0.86,0.59-1.26
		L267,184.27z"/>
	<path class="st1" d="M266.91,184.22c2.4-4.09,5.62-7.69,9.42-10.52c1.9-1.42,3.95-2.63,6.1-3.63c2.14-1.02,4.41-1.73,6.65-2.47
		l26.92-8.89l53.84-17.78c0.1-0.03,0.21,0.02,0.24,0.12c0.02,0.05,0.01,0.1-0.01,0.15l-18.31,36.74c-3.27,5.98-4.38,13.06-2.96,19.7
		c1.38,6.63,5.18,12.74,10.53,16.88c1.34,1.02,2.75,1.98,4.26,2.74c0.73,0.42,1.53,0.73,2.29,1.08c0.79,0.29,1.57,0.63,2.39,0.85
		c1.61,0.53,3.27,0.84,4.94,1.08c0.84,0.07,1.68,0.19,2.53,0.19l0.63,0.02l0.32,0.01l0.16,0l0.08,0c-0.64,0.41-0.16,0.07-0.29,0.15
		l0.57-1.15l9.18-18.36l18.37-36.72l73.62-146.79l0.61,0.99l-13.79,0.02l-6.89,0.01c-2.31,0.01-4.6-0.04-6.83,0.16
		c-8.98,0.76-17.58,5.23-23.33,12.17c-1.41,1.75-2.75,3.57-3.79,5.56c-1.09,1.99-2.14,4.06-3.21,6.08l-6.39,12.22l-6.39,12.22
		l-3.2,6.11c-1.08,2.03-2.07,4.08-3.3,6.11c-2.46,4.01-5.71,7.52-9.52,10.28c-1.9,1.38-3.94,2.58-6.08,3.56
		c-2.13,1-4.4,1.7-6.56,2.4l-26.24,8.46l-52.48,16.93c-0.5,0.16-1.04-0.11-1.2-0.62c-0.08-0.25-0.05-0.5,0.05-0.72l19.55-39.63
		l9.79-19.81c0.83-1.67,1.59-3.25,2.18-4.93c0.56-1.69,1-3.41,1.24-5.17c0.23-1.76,0.3-3.54,0.2-5.31
		c-0.12-1.77-0.41-3.53-0.85-5.25c-1.8-6.88-6.36-13-12.46-16.65c-3.04-1.84-6.45-3.04-9.96-3.56c-0.88-0.13-1.76-0.22-2.65-0.26
		l-1.33-0.04l-0.08,0c0.37-0.24-0.95,0.52,0.82-0.53l-0.08,0.15l-0.16,0.31l-0.31,0.62l-2.5,4.92l-20.07,39.36l-80.71,157.24
		l-0.27-0.44l23.22,0.07l0.02,0c4.99,0.41,10.1,0.11,14.87-1.46c4.75-1.51,9.2-4.34,12.05-8.49c0.4-0.49,0.67-1.05,1-1.58
		c0.34-0.53,0.6-1.09,0.86-1.67c0.52-1.12,1.04-2.33,1.68-3.4l3.68-6.61L266.91,184.22z M267.08,184.32l-7.3,13.25l-3.65,6.62
		c-0.65,1.1-1.12,2.22-1.66,3.39c-0.25,0.58-0.52,1.16-0.86,1.7c-0.33,0.54-0.61,1.12-1.01,1.61c-1.45,2.09-3.27,3.92-5.38,5.35
		c-2.09,1.44-4.41,2.54-6.82,3.33c-4.83,1.61-9.99,1.93-15.03,1.54l0.02,0l-23.22,0.07c-0.17,0-0.31-0.14-0.31-0.3
		c0-0.05,0.01-0.1,0.03-0.14l79.56-157.83l19.99-39.4l2.5-4.92l0.31-0.62l0.16-0.31l0.08-0.15c1.78-1.13,0.55-0.31,0.97-0.56l0.09,0
		l1.43,0.05c0.95,0.05,1.9,0.14,2.84,0.28c3.77,0.56,7.43,1.86,10.7,3.83c6.55,3.92,11.42,10.48,13.36,17.85
		c0.47,1.85,0.78,3.73,0.91,5.64c0.11,1.9,0.02,3.82-0.22,5.71c-0.26,1.89-0.73,3.74-1.33,5.55c-0.62,1.79-1.47,3.54-2.28,5.16
		l-9.79,19.81l-19.61,39.6l-1.15-1.33l52.53-16.78l26.27-8.39c2.21-0.7,4.35-1.36,6.38-2.31c2.04-0.93,3.99-2.07,5.81-3.38
		c3.64-2.62,6.76-5.97,9.12-9.79c1.16-1.89,2.18-3.98,3.26-6.01l3.21-6.1l6.42-12.2l6.42-12.2c1.08-2.03,2.11-4.07,3.24-6.1
		c1.1-2.08,2.5-3.98,3.97-5.8c6.01-7.22,14.99-11.87,24.34-12.63c1.16-0.13,2.35-0.12,3.5-0.15l3.45,0l6.89,0.01L479,17.27
		c0.38,0,0.68,0.3,0.68,0.68c0,0.11-0.03,0.22-0.07,0.31l-73.94,146.63l-18.52,36.64l-9.26,18.32l-0.58,1.14
		c-0.16,0.11,0.32-0.15-0.38,0.27l-0.08,0l-0.16-0.01l-0.32-0.01l-0.65-0.02c-0.87,0-1.73-0.13-2.59-0.21
		c-1.71-0.25-3.42-0.57-5.06-1.13c-0.84-0.23-1.63-0.58-2.44-0.88c-0.78-0.37-1.59-0.69-2.34-1.12c-1.54-0.79-2.98-1.77-4.35-2.82
		c-5.46-4.26-9.31-10.51-10.69-17.28c-1.43-6.77-0.24-14.02,3.09-20.04l18.41-36.7l0.23,0.27l-53.87,17.69l-26.94,8.85
		c-2.25,0.74-4.5,1.43-6.63,2.45c-2.13,1-4.17,2.2-6.06,3.6C272.69,176.69,269.47,180.26,267.08,184.32z"/>
</g>
</svg>
